<svg aria-hidden="true" style="position: absolute; width: 0; height: 0; overflow: hidden;" version="1.1" xmlns="http://www.w3.org/2000/svg" xmlns:xlink="http://www.w3.org/1999/xlink">
<defs>
<symbol id="icon-astronaut" viewBox="0 0 32 32">
<path fill="#4d5ae5" style="fill: var(--color1, #4d5ae5)" d="M31.974 4.524c-0.063-0.193-0.229-0.333-0.43-0.363l-1.91-0.278-0.855-1.731c-0.179-0.365-0.777-0.365-0.956 0l-0.855 1.731-1.91 0.278c-0.201 0.029-0.367 0.17-0.431 0.363-0.062 0.193-0.011 0.405 0.135 0.547l1.383 1.348-0.326 1.903c-0.034 0.2 0.048 0.402 0.212 0.522 0.166 0.121 0.382 0.135 0.562 0.040l1.709-0.899 1.709 0.899c0.078 0.041 0.164 0.061 0.249 0.061 0.11 0 0.221-0.034 0.314-0.102 0.164-0.119 0.246-0.322 0.212-0.522l-0.326-1.903 1.383-1.348c0.145-0.142 0.197-0.354 0.135-0.547zM29.511 5.851c-0.125 0.122-0.183 0.299-0.153 0.472l0.191 1.114-1-0.526c-0.078-0.041-0.163-0.061-0.249-0.061s-0.17 0.020-0.249 0.061l-1.001 0.526 0.191-1.114c0.030-0.173-0.028-0.349-0.153-0.472l-0.81-0.789 1.119-0.163c0.174-0.025 0.324-0.134 0.402-0.292l0.5-1.013 0.5 1.013c0.078 0.157 0.228 0.267 0.402 0.292l1.119 0.163-0.809 0.789z"></path>
<path fill="#4d5ae5" style="fill: var(--color1, #4d5ae5)" d="M26.133 20.522h-1.067v1.067h1.067v-1.067z"></path>
<path fill="#4d5ae5" style="fill: var(--color1, #4d5ae5)" d="M26.133 22.656h-1.067v1.067h1.067v-1.067z"></path>
<path fill="#4d5ae5" style="fill: var(--color1, #4d5ae5)" d="M27.2 21.589h-1.067v1.067h1.067v-1.067z"></path>
<path fill="#4d5ae5" style="fill: var(--color1, #4d5ae5)" d="M25.067 21.589h-1.067v1.067h1.067v-1.067z"></path>
<path fill="#4d5ae5" style="fill: var(--color1, #4d5ae5)" d="M22.4 26.389h-1.067v1.067h1.067v-1.067z"></path>
<path fill="#4d5ae5" style="fill: var(--color1, #4d5ae5)" d="M22.4 28.522h-1.067v1.067h1.067v-1.067z"></path>
<path fill="#4d5ae5" style="fill: var(--color1, #4d5ae5)" d="M23.467 27.456l-1.067-0v1.067l1.067 0v-1.067z"></path>
<path fill="#4d5ae5" style="fill: var(--color1, #4d5ae5)" d="M21.333 27.456l-1.067 0v1.067l1.067-0v-1.067z"></path>
<path fill="#4d5ae5" style="fill: var(--color1, #4d5ae5)" d="M16 24.256h-1.067v1.067h1.067v-1.067z"></path>
<path fill="#4d5ae5" style="fill: var(--color1, #4d5ae5)" d="M16 26.389h-1.067v1.067h1.067v-1.067z"></path>
<path fill="#4d5ae5" style="fill: var(--color1, #4d5ae5)" d="M17.067 25.322l-1.067 0v1.067l1.067-0v-1.067z"></path>
<path fill="#4d5ae5" style="fill: var(--color1, #4d5ae5)" d="M14.933 25.322l-1.067-0v1.067l1.067 0v-1.067z"></path>
<path fill="#4d5ae5" style="fill: var(--color1, #4d5ae5)" d="M5.867 6.122h-1.067v1.067h1.067v-1.067z"></path>
<path fill="#4d5ae5" style="fill: var(--color1, #4d5ae5)" d="M5.867 8.255h-1.067v1.067h1.067v-1.067z"></path>
<path fill="#4d5ae5" style="fill: var(--color1, #4d5ae5)" d="M6.933 7.189h-1.067v1.067l1.067 0v-1.067z"></path>
<path fill="#4d5ae5" style="fill: var(--color1, #4d5ae5)" d="M4.8 7.189h-1.067v1.067l1.067-0v-1.067z"></path>
<path fill="#2e2f42" style="fill: var(--color2, #2e2f42)" d="M24.715 14.159c-0.287-0.388-0.709-0.637-1.188-0.705-0.481-0.068-0.956 0.058-1.34 0.352l-1.252 0.96-1.898 1.417-1.358-0.541c2.421-1.086 4.114-3.508 4.114-6.32 0-3.823-3.123-6.933-6.961-6.933s-6.961 3.11-6.961 6.933c0 1.386 0.414 2.674 1.12 3.758l-2.764-0.024c-0.002 0-0.003 0-0.005 0-0.009 0-0.015 0.004-0.023 0.005-0.053 0.002-0.105 0.013-0.155 0.031-0.013 0.005-0.026 0.008-0.038 0.013-0.006 0.003-0.013 0.003-0.019 0.006l-3.233 1.596c-0.001 0-0.001 0-0.001 0.001l-1.893 0.911c-0.021 0.009-0.042 0.021-0.063 0.035-0.755 0.502-1.012 1.489-0.598 2.295 0.22 0.429 0.595 0.745 1.056 0.889 0.178 0.055 0.359 0.083 0.539 0.083 0.29 0 0.577-0.071 0.839-0.211l1.388-0.738 2.264-1.169 1.357-0.008-5.442 5.416c-0.001 0.001-0.001 0.001-0.002 0.001l-1.339 1.333c-0.316 0.315-0.49 0.732-0.49 1.178s0.174 0.863 0.49 1.179c0.325 0.323 0.752 0.485 1.179 0.485s0.854-0.162 1.18-0.485l1.314-1.309 1.741-1.3 0.901 0.897-1.762 1.754c-0 0.001-0.001 0.001-0.002 0.001l-1.339 1.333c-0.316 0.315-0.49 0.732-0.49 1.178s0.174 0.863 0.49 1.179c0.325 0.323 0.753 0.485 1.18 0.485s0.855-0.162 1.18-0.485l3.482-3.467c0.001-0.001 0.001-0.001 0.001-0.002l1.010-1-0.004-0.004c0.006-0.006 0.015-0.009 0.022-0.015l5.166-5.658 3.471 0.494c0.025 0.004 0.050 0.005 0.075 0.005 0.065 0 0.127-0.015 0.187-0.038 0.018-0.006 0.033-0.015 0.050-0.023 0.019-0.010 0.039-0.015 0.058-0.027l3.213-2.133c0.012-0.008 0.018-0.021 0.029-0.029 0.013-0.010 0.029-0.014 0.041-0.026l1.271-1.191c0.662-0.62 0.753-1.635 0.212-2.362zM2.13 17.77c-0.173 0.093-0.37 0.111-0.558 0.052-0.187-0.058-0.338-0.186-0.427-0.358-0.161-0.314-0.068-0.695 0.214-0.902l1.314-0.632 0.449 1.313-0.992 0.527zM5.628 15.942l-1.548 0.8-0.439-1.283 2.027-1.001-0.040 1.484zM20.727 9.322c0 0.918-0.219 1.785-0.599 2.559l-4.181-1.899c-0.044-0.573-0.341-1.075-0.788-1.388l1.464-4.86c2.378 0.756 4.105 2.974 4.105 5.588zM8.938 9.322c0-3.235 2.644-5.867 5.894-5.867 0.253 0 0.5 0.021 0.745 0.052l-1.432 4.754c-0.019-0.001-0.037-0.006-0.057-0.006-1.033 0-1.873 0.837-1.873 1.867s0.84 1.867 1.873 1.867c0.694 0 1.294-0.383 1.618-0.945l3.862 1.755c-1.075 1.446-2.795 2.39-4.737 2.39-3.25 0-5.894-2.632-5.894-5.867zM14.894 10.122c0 0.441-0.362 0.8-0.806 0.8s-0.806-0.359-0.806-0.8c0-0.441 0.362-0.8 0.806-0.8s0.806 0.359 0.806 0.8zM2.465 25.146c-0.236 0.234-0.619 0.234-0.854 0.001-0.114-0.114-0.176-0.263-0.176-0.423s0.062-0.309 0.176-0.421l0.962-0.958 0.851 0.848-0.959 0.955zM5.679 28.88c-0.236 0.234-0.619 0.235-0.855 0.001-0.114-0.114-0.176-0.263-0.176-0.423s0.062-0.309 0.176-0.421l0.963-0.959 0.852 0.848-0.96 0.955zM9.16 25.411c-0.001 0-0.001 0-0.002 0.001l-1.765 1.76-0.852-0.848 1.763-1.755c0 0 0 0 0-0s0.001-0.001 0.002-0.001c0.040-0.040 0.065-0.088 0.090-0.135 0.007-0.014 0.020-0.026 0.026-0.040 0.017-0.041 0.019-0.085 0.026-0.129 0.003-0.025 0.014-0.047 0.014-0.073 0-0.036-0.013-0.070-0.020-0.106-0.006-0.032-0.006-0.065-0.019-0.095-0.020-0.050-0.055-0.094-0.091-0.138-0.010-0.012-0.014-0.027-0.025-0.038 0 0 0 0-0.001 0s-0.001-0.002-0.001-0.002l-1.607-1.6c-0.017-0.017-0.039-0.024-0.058-0.038-0.028-0.022-0.055-0.042-0.087-0.058-0.030-0.015-0.061-0.024-0.093-0.033-0.034-0.010-0.067-0.017-0.103-0.020-0.033-0.002-0.063 0.001-0.095 0.005-0.036 0.004-0.069 0.009-0.104 0.020-0.034 0.011-0.063 0.027-0.094 0.045-0.020 0.011-0.042 0.015-0.061 0.029l-1.773 1.324-0.901-0.897 2.399-2.386 4.361 4.289-0.928 0.919zM15.979 18.394c-0.015-0.002-0.030 0.004-0.045 0.003-0.039-0.002-0.076 0.001-0.115 0.007-0.030 0.005-0.059 0.011-0.088 0.021-0.034 0.012-0.065 0.028-0.097 0.047-0.030 0.018-0.057 0.037-0.083 0.061-0.013 0.011-0.028 0.017-0.040 0.029l-4.698 5.146-4.328-4.257 2.833-2.818c0.209-0.208 0.21-0.546 0.002-0.755-0.105-0.105-0.243-0.157-0.381-0.156l-2.219 0.013 0.028-1.607 3.104 0.027c1.265 1.294 3.029 2.101 4.981 2.101 0.437 0 0.864-0.045 1.279-0.123 0.040 0.032 0.079 0.065 0.13 0.085l2.41 0.96 0.331 1.644-3.003-0.427zM20.020 18.572l-0.313-1.558 1.446-1.080 0.947 1.257-2.080 1.381zM23.774 15.741l-0.838 0.785-0.931-1.236 0.831-0.637c0.155-0.119 0.351-0.168 0.543-0.143 0.193 0.027 0.364 0.128 0.48 0.284 0.217 0.292 0.18 0.699-0.085 0.947z"></path>
<path fill="#2e2f42" style="fill: var(--color2, #2e2f42)" d="M13.602 18.544l-2.143-2.133c-0.207-0.207-0.545-0.207-0.753 0l-2.142 2.133c-0.1 0.101-0.157 0.236-0.157 0.378s0.056 0.278 0.157 0.378l2.142 2.133c0.104 0.103 0.241 0.155 0.377 0.155s0.273-0.052 0.376-0.155l2.143-2.133c0.1-0.1 0.157-0.236 0.157-0.378s-0.057-0.278-0.157-0.378zM11.083 20.303l-1.387-1.381 1.387-1.381 1.387 1.381-1.387 1.381z"></path>
<path fill="#2e2f42" style="fill: var(--color2, #2e2f42)" d="M17.164 5.071l-0.258 1.036c0.071 0.018 1.738 0.452 1.738 2.149h1.067c-0-2.017-1.666-2.965-2.547-3.185z"></path>
<path fill="#2e2f42" style="fill: var(--color2, #2e2f42)" d="M19.711 9.322h-1.067v1.067h1.067v-1.067z"></path>
</symbol>
<symbol id="icon-diagram" viewBox="0 0 32 32">
<path fill="#4d5ae5" style="fill: var(--color1, #4d5ae5)" d="M14.925 14.965h1.066v4.798h-1.066v-4.797z"></path>
<path fill="#4d5ae5" style="fill: var(--color1, #4d5ae5)" d="M19.19 17.097h1.066v2.665h-1.066v-2.665z"></path>
<path fill="#4d5ae5" style="fill: var(--color1, #4d5ae5)" d="M10.661 18.696h1.066v1.066h-1.066v-1.066z"></path>
<path fill="#4d5ae5" style="fill: var(--color1, #4d5ae5)" d="M7.463 18.163h1.066v1.599h-1.066v-1.599z"></path>
<path fill="#2e2f42" style="fill: var(--color2, #2e2f42)" d="M1.599 28.291h25.587c0.883 0 1.599-0.716 1.599-1.599v-2.132c0-0.883-0.716-1.599-1.599-1.599h-0.533v-13.293l3.028-2.868c0.703 0.346 1.553 0.136 2.013-0.499s0.396-1.508-0.152-2.068-1.42-0.644-2.065-0.198c-0.644 0.446-0.873 1.292-0.542 2.002l-2.281 2.163v-1.23c0-0.883-0.716-1.599-1.599-1.599h-21.322c-0.883 0-1.599 0.716-1.599 1.599v15.992h-0.533c-0.883 0-1.599 0.716-1.599 1.599v2.132c0 0.883 0.716 1.599 1.599 1.599zM30.384 4.837c0.294 0 0.533 0.239 0.533 0.533s-0.239 0.533-0.533 0.533c-0.294 0-0.533-0.239-0.533-0.533s0.239-0.533 0.533-0.533zM3.198 6.969c0-0.294 0.239-0.533 0.533-0.533h21.322c0.294 0 0.533 0.239 0.533 0.533v2.239l-1.066 1.013v-2.186c0-0.294-0.239-0.533-0.533-0.533h-19.19c-0.294 0-0.533 0.239-0.533 0.533v13.326c0 0.294 0.239 0.533 0.533 0.533h19.19c0.294 0 0.533-0.239 0.533-0.533v-9.674l1.066-1.010v12.284h-22.388v-15.992zM7.996 13.899c-0.721-0.002-1.354 0.478-1.546 1.174s0.105 1.433 0.725 1.801c0.62 0.368 1.41 0.276 1.928-0.226l1.853 0.93c0.215 0.108 0.476 0.057 0.636-0.123l3.939-4.431 3.872 2.901c0.208 0.156 0.498 0.139 0.686-0.039l3.365-3.188v8.131h-18.124v-12.26h18.124v2.66l-3.771 3.572-3.904-2.927c-0.222-0.166-0.534-0.135-0.718 0.072l-3.993 4.493-1.493-0.746c0.011-0.064 0.018-0.129 0.020-0.193 0-0.883-0.716-1.599-1.599-1.599zM8.529 15.498c0 0.294-0.239 0.533-0.533 0.533s-0.533-0.239-0.533-0.533c0-0.294 0.239-0.533 0.533-0.533s0.533 0.239 0.533 0.533zM11.727 24.027h5.331v0.533c0 0.294-0.239 0.533-0.533 0.533h-4.264c-0.294 0-0.533-0.239-0.533-0.533v-0.533zM1.066 24.56c0-0.294 0.239-0.533 0.533-0.533h9.062v0.533c0 0.883 0.716 1.599 1.599 1.599h4.264c0.883 0 1.599-0.716 1.599-1.599v-0.533h9.062c0.294 0 0.533 0.239 0.533 0.533v2.132c0 0.294-0.239 0.533-0.533 0.533h-25.587c-0.294 0-0.533-0.239-0.533-0.533v-2.132z"></path>
</symbol>
<symbol id="icon-clock" viewBox="0 0 32 32">
<path fill="#2e2f42" style="fill: var(--color2, #2e2f42)" d="M31.297 15.301c-0.002-8.452-6.855-15.303-15.308-15.301s-15.303 6.855-15.301 15.308c0.001 6.658 4.307 12.551 10.649 14.576 0.060 0.019 0.123 0.029 0.187 0.029 0.121-0 0.239-0.032 0.342-0.094 0.135-0.080 0.236-0.207 0.283-0.356l3.865-12.25c1.057-0.005 1.909-0.866 1.903-1.923s-0.866-1.909-1.923-1.903c-0.284 0.001-0.565 0.067-0.82 0.191l-5.106-5.107c-0.253-0.245-0.657-0.238-0.902 0.016-0.239 0.247-0.239 0.639 0 0.886l5.103 5.109c-0.392 0.799-0.168 1.764 0.536 2.309l-3.683 11.673c-7.278-2.681-11.004-10.754-8.323-18.032s10.754-11.004 18.032-8.323c7.278 2.681 11.004 10.754 8.323 18.032-1.31 3.556-4.001 6.431-7.462 7.973l-0.398-1.874c-0.073-0.345-0.411-0.565-0.756-0.492-0.109 0.023-0.209 0.074-0.292 0.148l-3.837 3.426c-0.263 0.234-0.287 0.637-0.052 0.9 0.076 0.085 0.174 0.149 0.283 0.184l4.899 1.564c0.335 0.108 0.694-0.077 0.802-0.412 0.034-0.106 0.040-0.219 0.017-0.328l-0.391-1.839c5.664-2.388 9.342-7.942 9.329-14.089zM15.992 14.664c0.352 0 0.638 0.286 0.638 0.638s-0.286 0.638-0.638 0.638c-0.352 0-0.638-0.285-0.638-0.638s0.285-0.638 0.638-0.638zM18.093 29.528l2.184-1.948 0.603 2.84-2.787-0.892z"></path>
<path fill="#4d5ae5" style="fill: var(--color1, #4d5ae5)" d="M15.354 3.185v1.275c0 0.352 0.285 0.638 0.638 0.638s0.638-0.285 0.638-0.638v-1.275c0-0.352-0.286-0.638-0.638-0.638s-0.638 0.286-0.638 0.638z"></path>
<path fill="#4d5ae5" style="fill: var(--color1, #4d5ae5)" d="M3.876 14.664c-0.352 0-0.638 0.286-0.638 0.638s0.285 0.638 0.638 0.638h1.275c0.352 0 0.638-0.285 0.638-0.638s-0.285-0.638-0.638-0.638h-1.275z"></path>
<path fill="#4d5ae5" style="fill: var(--color1, #4d5ae5)" d="M28.108 15.939c0.352 0 0.638-0.285 0.638-0.638s-0.285-0.638-0.638-0.638h-1.275c-0.352 0-0.638 0.286-0.638 0.638s0.286 0.638 0.638 0.638h1.275z"></path>
</symbol>
<symbol id="icon-antena" viewBox="0 0 32 32">
<path fill="#2e2f42" style="fill: var(--color2, #2e2f42)" d="M30.773 22.098l-8.443-8.505 0.937-4.615c0.242 0.094 0.499 0.144 0.758 0.146h0.006c1.192 0.014 2.17-0.941 2.184-2.133s-0.941-2.17-2.133-2.184c-1.192-0.014-2.17 0.941-2.184 2.133-0.003 0.255 0.039 0.509 0.125 0.749l-4.96 0.605-8.091-8.133c-0.099-0.101-0.235-0.159-0.377-0.16-0.14 0.001-0.274 0.056-0.373 0.155l-1.513 1.504c-0.208 0.208-0.208 0.546 0 0.754l0.814 0.826c-3.153 5.798-2.129 12.978 2.519 17.663 0.043 0.041 0.092 0.074 0.146 0.098-0.034 0.18-0.051 0.364-0.052 0.547v6.187h-6.4c-1.472 0.002-2.665 1.195-2.667 2.667v1.067c0 0.295 0.239 0.533 0.533 0.533h24.533c0.295 0 0.533-0.239 0.533-0.533v-1.067c-0.002-1.472-1.195-2.665-2.667-2.667h-6.4v-2.742c1.003 0.21 2.024 0.317 3.049 0.32 2.458-0.003 4.877-0.615 7.040-1.783l0.818 0.823c0.099 0.101 0.235 0.159 0.377 0.16 0.14-0.001 0.274-0.056 0.373-0.155l1.513-1.504c0.208-0.208 0.208-0.546 0-0.754zM23.28 6.233c0.418-0.415 1.093-0.414 1.509 0.004s0.414 1.093-0.004 1.508c-0.2 0.199-0.47 0.31-0.752 0.31h-0.003c-0.589-0.003-1.064-0.483-1.061-1.072 0.002-0.282 0.115-0.552 0.314-0.751h-0.002zM22.024 9.738l-0.598 2.946-1.175-1.182 1.774-1.763zM21.419 8.836l-1.92 1.909-1.485-1.493 3.405-0.415zM24.004 28.8c0.884 0 1.6 0.716 1.6 1.6v0.533h-23.467v-0.533c0-0.884 0.716-1.6 1.6-1.6h20.267zM16.537 26.667v1.067h-5.333v-1.067h5.333zM11.204 25.6v-4.053c0-1.294 1.196-2.347 2.667-2.347s2.667 1.053 2.667 2.347v4.053h-5.333zM17.604 23.904v-2.357c0-1.882-1.675-3.413-3.733-3.413-1.331-0.020-2.576 0.657-3.281 1.786-4.058-4.274-4.971-10.645-2.279-15.887l18.602 18.708c-2.872 1.461-6.165 1.873-9.309 1.163zM28.893 23.22l-21.057-21.181 0.755-0.752 7.935 7.98c0.004 0 0.006 0.007 0.010 0.010l13.115 13.191-0.757 0.752z"></path>
<path fill="#4d5ae5" style="fill: var(--color1, #4d5ae5)" d="M13.876 20.267h-0.005c-0.884-0.001-1.601 0.714-1.602 1.598s0.714 1.601 1.598 1.602h0.005c0.884 0.001 1.601-0.714 1.602-1.598s-0.714-1.601-1.598-1.602zM14.249 22.245c-0.1 0.1-0.236 0.156-0.378 0.155-0.295-0.002-0.532-0.242-0.531-0.536 0.001-0.141 0.057-0.276 0.157-0.375s0.233-0.154 0.373-0.155c0.295 0.002 0.532 0.241 0.531 0.536-0.001 0.141-0.057 0.276-0.157 0.375h0.005z"></path>
</symbol>
<symbol id="icon-twitter" viewBox="0 0 32 32">
<path fill="#f4f4fd" style="fill: var(--color3, #f4f4fd)" d="M25.2 1.5h4.908l-10.72 12.284 12.612 16.716h-9.874l-7.734-10.14-8.85 10.14h-4.91l11.466-13.14-12.098-15.86h10.126l6.99 9.266 8.084-9.266zM23.48 27.556h2.72l-17.554-23.266h-2.916l17.75 23.266z"></path>
</symbol>
<symbol id="icon-linkedin" viewBox="0 0 32 32">
<path fill="#f4f4fd" style="fill: var(--color3, #f4f4fd)" d="M31.992 32l0.008-0.001v-11.736c0-5.741-1.236-10.164-7.948-10.164-3.227 0-5.392 1.771-6.276 3.449h-0.093v-2.913h-6.364v21.364h6.627v-10.579c0-2.785 0.528-5.479 3.977-5.479 3.399 0 3.449 3.179 3.449 5.657v10.401h6.62z"></path>
<path fill="#f4f4fd" style="fill: var(--color3, #f4f4fd)" d="M0.528 10.636h6.635v21.364h-6.635v-21.364z"></path>
<path fill="#f4f4fd" style="fill: var(--color3, #f4f4fd)" d="M3.843 0c-2.121 0-3.843 1.721-3.843 3.843s1.721 3.879 3.843 3.879c2.121 0 3.843-1.757 3.843-3.879-0.001-2.121-1.723-3.843-3.843-3.843z"></path>
</symbol>
<symbol id="icon-facebook" viewBox="0 0 32 32">
<path fill="#f4f4fd" style="fill: var(--color3, #f4f4fd)" d="M21.329 5.313h2.921v-5.088c-0.504-0.069-2.237-0.225-4.256-0.225-4.212 0-7.097 2.649-7.097 7.519v4.481h-4.648v5.688h4.648v14.312h5.699v-14.311h4.46l0.708-5.688h-5.169v-3.919c0.001-1.644 0.444-2.769 2.735-2.769z"></path>
</symbol>
<symbol id="icon-instagram" viewBox="0 0 32 32">
<path fill="#f4f4fd" style="fill: var(--color3, #f4f4fd)" d="M31.969 9.408c-0.075-1.7-0.35-2.869-0.744-3.882-0.406-1.075-1.031-2.038-1.85-2.838-0.8-0.813-1.769-1.444-2.832-1.844-1.019-0.394-2.182-0.669-3.882-0.744-1.713-0.081-2.257-0.1-6.601-0.1s-4.888 0.019-6.595 0.094c-1.7 0.075-2.869 0.35-3.882 0.744-1.075 0.406-2.038 1.031-2.838 1.85-0.813 0.8-1.444 1.769-1.844 2.832-0.394 1.019-0.669 2.182-0.744 3.882-0.081 1.713-0.1 2.257-0.1 6.601s0.019 4.888 0.094 6.595c0.075 1.7 0.35 2.869 0.744 3.882 0.406 1.075 1.038 2.038 1.85 2.838 0.8 0.813 1.769 1.444 2.832 1.844 1.019 0.394 2.182 0.669 3.882 0.744 1.706 0.075 2.25 0.094 6.595 0.094s4.888-0.019 6.595-0.094c1.7-0.075 2.869-0.35 3.882-0.744 2.151-0.832 3.851-2.532 4.682-4.682 0.394-1.019 0.669-2.182 0.744-3.882 0.075-1.707 0.094-2.25 0.094-6.595s-0.006-4.888-0.081-6.595zM29.087 22.473c-0.069 1.563-0.331 2.407-0.55 2.969-0.538 1.394-1.644 2.501-3.038 3.038-0.563 0.219-1.413 0.481-2.969 0.55-1.688 0.075-2.194 0.094-6.464 0.094s-4.782-0.019-6.464-0.094c-1.563-0.069-2.407-0.331-2.969-0.55-0.694-0.256-1.325-0.663-1.838-1.194-0.531-0.519-0.938-1.144-1.194-1.838-0.219-0.563-0.481-1.413-0.55-2.969-0.075-1.688-0.094-2.194-0.094-6.464s0.019-4.782 0.094-6.464c0.069-1.563 0.331-2.407 0.55-2.969 0.256-0.694 0.663-1.325 1.2-1.838 0.519-0.531 1.144-0.938 1.838-1.194 0.563-0.219 1.413-0.481 2.969-0.55 1.688-0.075 2.194-0.094 6.464-0.094 4.276 0 4.782 0.019 6.464 0.094 1.563 0.069 2.407 0.331 2.969 0.55 0.694 0.256 1.325 0.662 1.838 1.194 0.531 0.519 0.938 1.144 1.194 1.838 0.219 0.563 0.481 1.413 0.55 2.969 0.075 1.688 0.094 2.194 0.094 6.464s-0.019 4.77-0.094 6.458z"></path>
<path fill="#f4f4fd" style="fill: var(--color3, #f4f4fd)" d="M16.059 7.783c-4.538 0-8.22 3.682-8.22 8.22s3.682 8.22 8.22 8.22c4.538 0 8.22-3.682 8.22-8.22s-3.682-8.22-8.22-8.22zM16.059 21.335c-2.944 0-5.332-2.388-5.332-5.332s2.388-5.332 5.332-5.332c2.944 0 5.332 2.388 5.332 5.332s-2.388 5.332-5.332 5.332z"></path>
<path fill="#f4f4fd" style="fill: var(--color3, #f4f4fd)" d="M26.524 7.458c0 1.060-0.859 1.919-1.919 1.919s-1.919-0.859-1.919-1.919c0-1.060 0.859-1.919 1.919-1.919s1.919 0.859 1.919 1.919z"></path>
</symbol>
</defs>
<symbol id="icon-checkbox" viewBox="0 0 16 16">
    <path d="M13.25 3.5L6.15 10.6L2.75 7.2L1.5 8.45L6.15 13.1L14.5 4.75L13.25 3.5Z"/>
  </symbol>
  <symbol id="icon-close" viewBox="0 0 8 8">
    <path d="M8 0.8L7.2 0L4 3.2L0.8 0L0 0.8L3.2 4L0 7.2L0.8 8L4 4.8L7.2 8L8 7.2L4.8 4L8 0.8Z"/>
  </symbol>
  <symbol id="icon-send" viewBox="0 0 24 24">
  <path d="M22 2L11 13M22 2L15 22L11 13M11 13L2 9L22 2z" stroke="currentColor" stroke-width="2" stroke-linecap="round" stroke-linejoin="round" fill="none"/>
</symbol>
<symbol id="icon-phone" viewBox="0 0 18 24">
  <path d="M16.1 14.5c-.8-.7-2-1-2.9-.6-.9.4-1.5 1.4-1.5 2.4l-.1 1.7c-3.1-1.3-5.5-3.8-6.8-6.9l1.7-.1c1 0 2-1 2.3-2 0-.9-.1-2.1-.8-2.9-.5-.5-1.2-.8-1.9-.8-.7 0-1.5.3-2 1-.7.9-1.1 2-1.1 3.1v.2c.1 4.5 3.8 8.1 8.3 8.1h.3c1.1 0 2.2-.4 3.1-1.1.7-.5 1-1.3 1-2.1 0-.7-.3-1.4-.9-2z" fill="currentColor"/>
</symbol>
<symbol id="icon-person" viewBox="0 0 18 24">
  <path d="M9 12c2.2 0 4-1.8 4-4s-1.8-4-4-4-4 1.8-4 4 1.8 4 4 4zm0 2c-2.7 0-8 1.4-8 4.2V20h16v-1.8c0-2.8-5.3-4.2-8-4.2z" fill="currentColor"/>
</symbol>
<symbol id="icon-email" viewBox="0 0 18 24">
  <path d="M16 4H2c-1.1 0-2 .9-2 2v12c0 1.1.9 2 2 2h14c1.1 0 2-.9 2-2V6c0-1.1-.9-2-2-2zm0 4.5l-7 4.5-7-4.5V6l7 4.5 7-4.5v2.5z" fill="currentColor"/>
</symbol>
<symbol id="icon-burger" viewBox="0 0 32 56">
  <path d="M21.706 21.256H24.01L25.468 25.486L26.944 21.256H29.23L27.034 27.07L28.654 31.138L32.272 21.22H34.972L29.86 34H27.718L25.468 28.636L23.236 34H21.094L16 21.22H18.664L22.3 31.138L23.884 27.07L21.706 21.256ZM45.6952 31.822V34H36.8212V21.22H45.5332V23.398H39.3052V26.476H44.6872V28.492H39.3052V31.822H45.6952ZM58.4678 30.706C58.4678 31.426 58.2818 32.032 57.9098 32.524C57.5378 33.004 57.0338 33.37 56.3978 33.622C55.7738 33.874 55.0898 34 54.3458 34H48.1718V21.22H55.0118C55.6118 21.22 56.1278 21.382 56.5598 21.706C57.0038 22.018 57.3398 22.426 57.5678 22.93C57.8078 23.422 57.9278 23.938 57.9278 24.478C57.9278 25.09 57.7718 25.672 57.4598 26.224C57.1478 26.776 56.6918 27.184 56.0918 27.448C56.8238 27.664 57.3998 28.054 57.8198 28.618C58.2518 29.182 58.4678 29.878 58.4678 30.706ZM55.9658 30.238C55.9658 29.914 55.8998 29.626 55.7678 29.374C55.6358 29.11 55.4558 28.906 55.2278 28.762C55.0118 28.606 54.7598 28.528 54.4718 28.528H50.6558V31.894H54.3458C54.6458 31.894 54.9158 31.822 55.1558 31.678C55.4078 31.522 55.6058 31.318 55.7498 31.066C55.8938 30.814 55.9658 30.538 55.9658 30.238ZM50.6558 23.344V26.566H53.9678C54.2438 26.566 54.4958 26.5 54.7238 26.368C54.9518 26.236 55.1318 26.05 55.2638 25.81C55.4078 25.57 55.4798 25.282 55.4798 24.946C55.4798 24.622 55.4138 24.34 55.2818 24.1C55.1618 23.86 54.9938 23.674 54.7778 23.542C54.5738 23.41 54.3398 23.344 54.0758 23.344H50.6558Z" fill="currentColor"/>
  <path d="M68.946 24.568C68.862 24.484 68.706 24.37 68.478 24.226C68.262 24.082 67.992 23.944 67.668 23.812C67.356 23.68 67.014 23.566 66.642 23.47C66.27 23.362 65.892 23.308 65.508 23.308C64.836 23.308 64.326 23.434 63.978 23.686C63.642 23.938 63.474 24.292 63.474 24.748C63.474 25.096 63.582 25.372 63.798 25.576C64.014 25.78 64.338 25.954 64.77 26.098C65.202 26.242 65.742 26.398 66.39 26.566C67.23 26.77 67.956 27.022 68.568 27.322C69.192 27.61 69.666 27.994 69.99 28.474C70.326 28.942 70.494 29.566 70.494 30.346C70.494 31.03 70.368 31.618 70.116 32.11C69.864 32.59 69.516 32.98 69.072 33.28C68.628 33.58 68.124 33.802 67.56 33.946C66.996 34.078 66.396 34.144 65.76 34.144C65.124 34.144 64.488 34.078 63.852 33.946C63.216 33.814 62.604 33.628 62.016 33.388C61.428 33.136 60.888 32.836 60.396 32.488L61.494 30.346C61.602 30.454 61.794 30.598 62.07 30.778C62.346 30.946 62.682 31.12 63.078 31.3C63.474 31.468 63.906 31.612 64.374 31.732C64.842 31.852 65.316 31.912 65.796 31.912C66.468 31.912 66.978 31.798 67.326 31.57C67.674 31.342 67.848 31.018 67.848 30.598C67.848 30.214 67.71 29.914 67.434 29.698C67.158 29.482 66.774 29.296 66.282 29.14C65.79 28.972 65.208 28.792 64.536 28.6C63.732 28.372 63.06 28.12 62.52 27.844C61.98 27.556 61.578 27.196 61.314 26.764C61.05 26.332 60.918 25.792 60.918 25.144C60.918 24.268 61.122 23.536 61.53 22.948C61.95 22.348 62.514 21.898 63.222 21.598C63.93 21.286 64.716 21.13 65.58 21.13C66.18 21.13 66.744 21.196 67.272 21.328C67.812 21.46 68.316 21.634 68.784 21.85C69.252 22.066 69.672 22.3 70.044 22.552L68.946 24.568ZM82.4691 23.398H78.3831V34H75.9171V23.398H71.8311V21.22H82.4691V23.398ZM90.0136 34.09C88.9936 34.09 88.1236 33.922 87.4036 33.586C86.6956 33.238 86.1196 32.764 85.6756 32.164C85.2436 31.564 84.9256 30.886 84.7216 30.13C84.5176 29.362 84.4156 28.564 84.4156 27.736V21.22H86.8996V27.736C86.8996 28.264 86.9476 28.78 87.0436 29.284C87.1516 29.776 87.3256 30.22 87.5656 30.616C87.8056 31.012 88.1236 31.324 88.5196 31.552C88.9156 31.78 89.4076 31.894 89.9956 31.894C90.5956 31.894 91.0936 31.78 91.4896 31.552C91.8976 31.312 92.2156 30.994 92.4436 30.598C92.6836 30.202 92.8576 29.758 92.9656 29.266C93.0736 28.762 93.1276 28.252 93.1276 27.736V21.22H95.5936V27.736C95.5936 28.612 95.4856 29.434 95.2696 30.202C95.0656 30.97 94.7356 31.648 94.2796 32.236C93.8356 32.812 93.2596 33.268 92.5516 33.604C91.8436 33.928 90.9976 34.09 90.0136 34.09ZM98.6356 34V21.22H103.28C104.672 21.22 105.836 21.508 106.772 22.084C107.708 22.648 108.41 23.416 108.878 24.388C109.346 25.348 109.58 26.416 109.58 27.592C109.58 28.888 109.322 30.016 108.806 30.976C108.29 31.936 107.558 32.68 106.61 33.208C105.674 33.736 104.564 34 103.28 34H98.6356ZM107.078 27.592C107.078 26.764 106.928 26.038 106.628 25.414C106.328 24.778 105.896 24.286 105.332 23.938C104.768 23.578 104.084 23.398 103.28 23.398H101.12V31.822H103.28C104.096 31.822 104.786 31.642 105.35 31.282C105.914 30.91 106.34 30.406 106.628 29.77C106.928 29.122 107.078 28.396 107.078 27.592ZM112.06 34V21.22H114.544V34H112.06ZM123.205 34.09C122.269 34.09 121.417 33.91 120.649 33.55C119.893 33.19 119.239 32.704 118.687 32.092C118.147 31.468 117.727 30.772 117.427 30.004C117.127 29.224 116.977 28.426 116.977 27.61C116.977 26.758 117.133 25.948 117.445 25.18C117.769 24.4 118.207 23.71 118.759 23.11C119.323 22.498 119.983 22.018 120.739 21.67C121.507 21.31 122.347 21.13 123.259 21.13C124.183 21.13 125.023 21.316 125.779 21.688C126.547 22.06 127.201 22.558 127.741 23.182C128.281 23.806 128.701 24.502 129.001 25.27C129.301 26.038 129.451 26.83 129.451 27.646C129.451 28.486 129.295 29.296 128.983 30.076C128.671 30.844 128.233 31.534 127.669 32.146C127.117 32.746 126.457 33.22 125.689 33.568C124.933 33.916 124.105 34.09 123.205 34.09ZM119.497 27.61C119.497 28.162 119.581 28.696 119.749 29.212C119.917 29.728 120.157 30.19C120.469 30.598C120.793 30.994 121.183 31.312 121.639 31.552C122.107 31.78 122.635 31.894 123.223 31.894C123.823 31.894 124.357 31.774 124.825 31.534C125.293 31.282 125.683 30.952 125.995 30.544C126.307 30.124 126.541 29.662 126.697 29.158C126.865 28.642 126.949 28.126 126.949 27.61C126.949 27.058 126.859 26.53 126.679 26.026C126.511 25.51 126.265 25.054 125.941 24.658C125.629 24.25 125.239 23.932 124.771 23.704C124.315 23.464 123.799 23.344 123.223 23.344C122.611 23.344 122.071 23.47 121.603 23.722C121.147 23.962 120.763 24.286 120.451 24.694C120.139 25.102 119.899 25.558 119.731 26.062C119.575 26.566 119.497 27.082 119.497 27.61Z" fill="currentColor"/>
  <path d="M283.6 22C283.6 21.6817 283.726 21.3765 283.951 21.1515C284.177 20.9264 284.482 20.8 284.8 20.8H299.2C299.518 20.8 299.823 20.9264 300.049 21.1515C300.274 21.3765 300.4 21.6817 300.4 22C300.4 22.3183 300.274 22.6235 300.049 22.8485C299.823 23.0736 299.518 23.2 299.2 23.2H284.8C284.482 23.2 284.177 23.0736 283.951 22.8485C283.726 22.6235 283.6 22.3183 283.6 22Z" fill="currentColor"/>
  <path d="M283.6 28C283.6 27.6817 283.726 27.3765 283.951 27.1515C284.177 26.9264 284.482 26.8 284.8 26.8H299.2C299.518 26.8 299.823 26.9264 300.049 27.1515C300.274 27.3765 300.4 27.6817 300.4 28C300.4 28.3183 300.274 28.6235 300.049 28.8485C299.823 29.0736 299.518 29.2 299.2 29.2H284.8C284.482 29.2 284.177 29.0736 283.951 28.8485C283.726 28.6235 283.6 28.3183 283.6 28Z" fill="currentColor"/>
  <path d="M283.6 34C283.6 33.6817 283.726 33.3765 283.951 33.1515C284.177 32.9264 284.482 32.8 284.8 32.8H299.2C299.518 32.8 299.823 32.9264 300.049 33.1515C300.274 33.3765 300.4 33.6817 300.4 34C300.4 34.3183 300.274 34.6235 300.049 34.8485C299.823 35.0736 299.518 35.2 299.2 35.2H284.8C284.82 35.2 284.177 35.0736 283.951 34.8485C283.726 34.6235 283.6 34.3183 283.6 34Z" fill="currentColor"/>
</symbol>
</svg>
